<?xml version="1.0" standalone="no"?>
<!DOCTYPE svg PUBLIC "-//W3C//DTD SVG 20010904//EN"
 "http://www.w3.org/TR/2001/REC-SVG-20010904/DTD/svg10.dtd">
<svg version="1.0" xmlns="http://www.w3.org/2000/svg"
 width="256.000000pt" height="256.000000pt" viewBox="0 0 256.000000 256.000000"
 preserveAspectRatio="xMidYMid meet">
<metadata>
Created by potrace 1.11, written by Peter Selinger 2001-2013
</metadata>
<g transform="translate(0.000000,256.000000) scale(0.100000,-0.100000)"
fill="#000000" stroke="none">
<path d="M1158 2555 c-2 -1 -28 -6 -58 -9 -96 -12 -330 -80 -338 -98 -2 -5
-10 -8 -18 -8 -13 0 -53 -20 -124 -63 -190 -115 -366 -303 -474 -507 -42 -80
-111 -260 -100 -260 2 0 0 -8 -5 -18 -9 -17 -13 -40 -31 -162 -12 -84 -4 -305
15 -395 79 -385 316 -704 655 -883 86 -46 270 -118 270 -106 0 3 8 0 18 -5 10
-5 36 -12 58 -15 22 -4 51 -9 64 -12 14 -3 86 -7 160 -9 122 -4 184 2 325 29
22 4 140 116 486 462 501 501 456 446 485 589 12 63 11 302 -2 390 -49 323
-230 626 -490 822 -27 20 -51 39 -54 42 -7 8 -73 46 -154 87 -74 38 -255 101
-315 110 -20 2 -47 7 -61 10 -26 7 -306 14 -312 9z m367 -169 c87 -21 84 -21
118 -34 16 -7 30 -12 33 -12 7 0 165 -77 201 -98 134 -79 278 -226 376 -387
50 -81 112 -238 133 -332 21 -94 27 -319 12 -415 -10 -58 -14 -68 -32 -69 -12
-1 -88 -2 -171 -4 -162 -3 -230 -16 -325 -62 -60 -30 -141 -91 -180 -137 -14
-16 -35 -40 -47 -54 -32 -38 -80 -138 -99 -207 -11 -41 -17 -113 -19 -228 -1
-92 -4 -170 -6 -172 -18 -18 -339 -30 -409 -15 -129 27 -162 36 -238 67 -109
43 -132 55 -230 120 -89 59 -216 183 -280 273 -137 193 -207 406 -211 642 -7
444 239 842 643 1038 84 41 191 75 321 103 51 11 343 -1 410 -17z"/>
<path d="M1785 1627 c-71 -17 -131 -32 -133 -33 -2 -1 9 -55 23 -120 28 -124
32 -142 40 -186 3 -15 9 -38 15 -52 5 -15 8 -26 5 -26 -2 0 0 -13 6 -28 l10
-29 142 32 142 32 -2 38 c-2 21 -4 40 -7 42 -2 2 -25 -1 -52 -7 -55 -13 -76
-17 -121 -26 -30 -6 -32 -5 -41 38 -5 23 -7 46 -5 50 2 3 39 14 83 24 l80 17
-6 36 c-4 20 -8 38 -10 40 -2 3 -39 -3 -82 -12 -42 -9 -80 -17 -84 -17 -6 0
-21 70 -19 87 1 8 33 18 86 28 83 15 100 21 99 38 -4 80 12 77 -169 34z"/>
<path d="M1445 1549 c-66 -16 -129 -31 -141 -34 -21 -5 -20 -8 28 -222 27
-120 51 -219 52 -220 1 -1 31 5 66 13 77 18 78 19 159 34 l63 13 -5 39 c-3 22
-7 41 -9 43 -1 2 -45 -6 -96 -18 -56 -12 -96 -17 -102 -11 -4 5 -11 27 -14 49
l-6 40 81 18 81 19 -7 36 c-4 20 -8 39 -10 40 -2 2 -38 -3 -81 -12 -43 -9 -81
-13 -85 -9 -4 5 -9 26 -11 48 l-3 39 60 13 c33 8 76 18 96 24 l37 9 -10 40
c-6 22 -13 40 -17 39 -3 0 -60 -14 -126 -30z"/>
<path d="M1045 1459 c-16 -5 -45 -11 -65 -14 -39 -6 -100 -24 -100 -30 0 -2 7
-34 16 -72 9 -37 18 -79 20 -92 3 -12 12 -53 20 -90 9 -36 18 -75 20 -86 12
-63 17 -81 26 -86 9 -6 75 5 84 13 2 3 -3 36 -11 74 -19 91 -19 91 13 102 26
8 30 4 88 -69 34 -43 63 -77 65 -74 4 4 51 12 77 14 22 2 13 20 -49 98 -50 63
-58 79 -47 87 59 43 50 166 -14 208 -30 20 -104 29 -143 17z m84 -98 c11 -11
18 -28 16 -38 -2 -10 -4 -22 -4 -26 -1 -11 -59 -34 -96 -39 -28 -3 -30 -1 -41
49 l-12 53 32 9 c51 15 85 12 105 -8z"/>
<path d="M668 1375 c-75 -17 -140 -34 -143 -37 -8 -7 83 -419 95 -431 6 -7 90
10 90 18 0 0 -8 40 -19 87 l-19 86 79 17 c43 9 81 20 84 24 7 12 -15 82 -24
77 -4 -3 -23 -8 -42 -11 -19 -3 -51 -10 -73 -16 -21 -6 -39 -9 -40 -7 -1 2 -8
23 -15 47 -9 29 -9 46 -2 50 5 4 51 15 101 25 l90 18 -6 37 c-4 20 -9 39 -13
42 -3 3 -68 -8 -143 -26z"/>
</g>
</svg>
